<svg width="125" height="34" viewBox="0 0 125 34" fill="none" xmlns="http://www.w3.org/2000/svg">
<path d="M0 0V34H62H63V0H62V0.0110474C54.8191 0.290283 51.0725 3.64209 47.3262 6.9939C43.4131 10.4947 39.5 13.9955 31.6738 13.9955C23.8479 13.9955 19.9348 10.4947 16.0217 6.9939C12.2151 3.58838 8.40869 0.182861 1 0H0Z" fill="white"/>
<path d="M62 0V34H63H125V0H124V0.0110407C116.819 0.290262 113.073 3.64207 109.326 6.99388C105.413 10.4947 101.5 13.9955 93.6739 13.9955C85.8478 13.9955 81.9347 10.4947 78.0217 6.99388C74.2152 3.58838 70.4086 0.182874 63 0H62Z" fill="white"/>
</svg>
